<?xml version="1.0" encoding="utf-8"?>
<!-- Generator: Adobe Illustrator 18.0.0, SVG Export Plug-In . SVG Version: 6.00 Build 0)  -->
<!DOCTYPE svg PUBLIC "-//W3C//DTD SVG 1.1//EN" "http://www.w3.org/Graphics/SVG/1.1/DTD/svg11.dtd">
<svg version="1.1" id="Layer_1" xmlns="http://www.w3.org/2000/svg" xmlns:xlink="http://www.w3.org/1999/xlink" x="0px" y="0px"
	 viewBox="0 0 792 612" enable-background="new 0 0 792 612" xml:space="preserve">
<g>
	<path fill="#FFFFFF" stroke="#000000" stroke-width="13" stroke-miterlimit="10" d="M709.3,542.6l-626,1.8
		c-23.2,0.1-42.1-18.7-42.2-41.9l-0.4-137.4c-0.1-23.2,18.7-42.1,41.9-42.2l626-1.8c23.2-0.1,42.1,18.7,42.2,41.9l0.4,137.4
		C751.3,523.7,732.5,542.6,709.3,542.6z"/>
	<g>
		<text transform="matrix(1 -2.861524e-03 2.861524e-03 1 70.0841 412.6042)" font-family="'Garamond-Bold'" font-size="75.3807">BrendanWilson.com</text>
		<text transform="matrix(1 -2.861524e-03 2.861524e-03 1 117.3913 455.7321)"><tspan x="0" y="0" font-family="'Garamond-Bold'" font-size="36.0073">“I’m coding this website right now!”</tspan><tspan x="214" y="43.2" font-family="'Garamond-Bold'" font-size="36.0073">(Maybe)</tspan></text>
	</g>
	<polyline fill="none" stroke="#000000" stroke-width="7" stroke-miterlimit="10" points="82.7,322.9 398.1,28.3 708.7,321.1 	"/>
	<circle cx="396.8" cy="29.5" r="19"/>
</g>
</svg>
